# xmcd
# Copyright (C) 1995-1998 Ti Kan
#
# Track frame offsets:
#       150
#       20391
#       41024
#       58100
#       85817
#       109121
#       126043
#       147174
#       166842
#       184169
#       201927
#
# Disc length: 2861 seconds
#
# Revision: 0
# Processed by: cddbd v1.4PL0 Copyright (c) Steve Scherf et al.
# Submitted via: CD-Transfer v1.0
#
DISCID=930b2b0b
DTITLE=Smartship Friday - Red Universe
DYEAR=2003
DGENRE=
TTITLE0=Red Devils
TTITLE1=Let The Sun Shine
TTITLE2=Hey Love
TTITLE3=Try To Save Your Song
TTITLE4=Carry Me Away
TTITLE5=Oh Brothers
TTITLE6=I Believe
TTITLE7=This Woman's Life
TTITLE8=Breakdown
TTITLE9=You Are Free
TTITLE10=Lass Mich Dich
EXTD=
EXTT0=
EXTT1=
EXTT2=
EXTT3=
EXTT4=
EXTT5=
EXTT6=
EXTT7=
EXTT8=
EXTT9=
EXTT10=
PLAYORDER=
